<svg xmlns="http://www.w3.org/2000/svg" viewBox="0 0 400 300" width="100%" height="100%">
  <rect width="100%" height="100%" fill="#F0E8DA"/>
  <g transform="translate(200, 140) scale(1.5)" fill="none" stroke="#8BA878" stroke-width="2.5" stroke-linecap="round" stroke-linejoin="round">
    <!-- Stylized Leaf -->
    <path d="M0,35 C-25,10 -25,-20 0,-40 C25,-20 25,10 0,35 Z" fill="#FAF6F0" fill-opacity="0.6"/>
    <!-- Stem/Veins -->
    <path d="M0,35 L0,-40"/>
    <path d="M0,15 C-10,10 -15,5 -15,5"/>
    <path d="M0,15 C10,10 15,5 15,5"/>
    <path d="M0,-5 C-8,-10 -12,-15 -12,-15"/>
    <path d="M0,-5 C8,-10 12,-15 12,-15"/>
    <path d="M0,-25 C-5,-28 -8,-32 -8,-32"/>
    <path d="M0,-25 C5,-28 8,-32 8,-32"/>
  </g>
  <text x="50%" y="82%" dominant-baseline="middle" text-anchor="middle" font-family="'Outfit', sans-serif" font-size="14" fill="#6B6255" letter-spacing="1">ESENCIA NATURAL</text>
  <text x="50%" y="90%" dominant-baseline="middle" text-anchor="middle" font-family="'Inter', sans-serif" font-size="11" fill="#8C8172">Imagen Ilustrativa</text>
</svg>
